# xmcd
#
# Track frame offsets: 
#        150
#        9868
#        24443
#        37997
#        50565
#        63767
#        79379
#        95376
#        109757
#        126805
#        141209
#        158048
#        176402
#        188903
#        201583
#        210977
#        222114
#        239473
#
# Disc length: 3401 seconds
#
# Revision: 1
# Processed by: cddbd v1.5.2PL0 Copyright (c) Steve Scherf et al.
# Submitted via: ExactAudioCopy v0.99pb5
#
DISCID=f00d4712
DTITLE=Daniël Lohues - Allenig II
DYEAR=2008
DGENRE=Pop
TTITLE0=Tik Tak
TTITLE1=Morgen Wordt Het Beter Toch, Of Niet?
TTITLE2=Angst Is Mar Veur Eben, Spiet Is Veur Altied
TTITLE3=Oma Had Geliek
TTITLE4=As De Liefde Mar Blief Winnen
TTITLE5=Hier Kom Ik Weg
TTITLE6=Ondertussen Zingt Joni Over Canada
TTITLE7=Het Verschil Tussen Wereld En Planeet
TTITLE8=Mar Dat Doe'j Ja Niet
TTITLE9='t Is En Het Blef 'N Gevecht
TTITLE10=Hij Wul De Klokken Laoten Luuden
TTITLE11=Boben Op 'N Strobult
TTITLE12=Ik Denk Aal Aan Joe
TTITLE13=Baat Bij Muziek
TTITLE14=Zingen Tot De Morgenzun
TTITLE15=De Ganzenkoning Wul Met
TTITLE16=Hier Kom Ik Weg (Radio Versie)
TTITLE17=Baat Mij Muziek (Radio Versie)
EXTD=
EXTT0=
EXTT1=
EXTT2=
EXTT3=
EXTT4=
EXTT5=
EXTT6=
EXTT7=
EXTT8=
EXTT9=
EXTT10=
EXTT11=
EXTT12=
EXTT13=
EXTT14=
EXTT15=
EXTT16=
EXTT17=
PLAYORDER=
